# xmcd
#
# Track frame offsets: 
#        150
#        21588
#        39146
#        47099
#        58975
#        77264
#        97568
#        120392
#        132199
#        160054
#        175758
#        191617
#        205894
#        224056
#
# Disc length: 3253 seconds
#
# Revision: 1
# Processed by: cddbd v1.5.2PL0 Copyright (c) Steve Scherf et al.
# Submitted via: ExactAudioCopy v1.0b3
#
DISCID=b50cb30e
DTITLE=Jürgen Postel - Helmut Pötsch - Postel and Pötsch
DYEAR=1998
DGENRE=Blues
TTITLE0=Jürgen Postel - Helmut Pötsch - Alexander Blume - Biografie für 
TTITLE0=viele
TTITLE1=Jürgen Postel - Helmut Pötsch - Alexander Blume - Hans Penzoldt /
TTITLE1=Wir steh'n im Stau
TTITLE2=Das Lied vom Wald
TTITLE3=Jürgen Postel - Helmut Pötsch - Hans Penzoldt - Weimar
TTITLE4=Jürgen Postel - Helmut Pötsch - Alexander Blume - Hans Penzoldt /
TTITLE4=Müller, Meier, Hoffmann
TTITLE5=Jürgen Postel - Helmut Pötsch - Hans Penzoldt - Blues für Josef
TTITLE6=Jürgen Postel - Helmut Pötsch - Alexander Blume - Hans Penzoldt /
TTITLE6=Stormy Monday blues
TTITLE7=Jürgen Postel - Helmut Pötsch - Hans Penzoldt - Sweet Georgia Br
TTITLE7=own
TTITLE8=Jürgen Postel - Helmut Pötsch - Hans Penzoldt - Politessen-Blues
TTITLE9=Jürgen Postel - Helmut Pötsch - Hans Penzoldt - Abschied
TTITLE10=Flying blue baloon
TTITLE11=Jürgen Postel - Helmut Pötsch - Hans Penzoldt - Rollin' and tum
TTITLE11=blin'
TTITLE12=Hermsdorfer Kreuz
TTITLE13=Schwester, Schwester
EXTD=
EXTT0=
EXTT1=
EXTT2=
EXTT3=
EXTT4=
EXTT5=
EXTT6=
EXTT7=
EXTT8=
EXTT9=
EXTT10=
EXTT11=
EXTT12=
EXTT13=
PLAYORDER=
